Coordinates
version=1
nRows=29
nColumns=24
inDegrees=yes

Units are S.I. units (second, meters, Newtons, ...)
Angles are in degrees.

endheader
time	pelvis_tilt	pelvis_list	pelvis_rotation	pelvis_tx	pelvis_ty	pelvis_tz	hip_flexion_r	hip_adduction_r	hip_rotation_r	knee_angle_r	ankle_angle_r	subtalar_angle_r	mtp_angle_r	hip_flexion_l	hip_adduction_l	hip_rotation_l	knee_angle_l	ankle_angle_l	subtalar_angle_l	mtp_angle_l	lumbar_extension	lumbar_bending	lumbar_rotation
      0.95750000	      0.40821950	     -2.43858269	     -0.52352340	     -0.09443208	      0.98674489	      0.30945726	    -13.74581456	      6.77099580	     -1.44718668	     -7.99179171	     13.25768739	     -5.48603991	     -3.61455027	     24.32011098	     -0.31893355	     -1.95939495	     -8.98008709	      0.52875723	     -4.03102868	     -0.33244052	     -2.23770136	      6.09781713	      6.33102020
      0.96166667	      0.35773944	     -2.40664075	     -0.53535208	     -0.08854886	      0.98615049	      0.30913298	    -13.73460929	      6.69358311	     -1.45920001	     -8.61173522	     13.30775867	     -5.48147705	     -3.60163628	     24.24374695	     -0.19858799	     -1.89123519	     -8.93448062	      0.32405044	     -4.03944505	     -0.26401387	     -2.12538058	      6.06669291	      6.34960465
      0.96583333	      0.25834169	     -2.34795580	     -0.54528063	     -0.08267099	      0.98554070	      0.30877697	    -13.63087317	      6.58459461	     -1.45755828	     -9.31119644	     13.44553098	     -5.38865369	     -3.56659065	     24.21399261	     -0.04046653	     -1.72732889	     -8.94783344	      0.05092517	     -4.19038721	     -0.12359732	     -1.98449835	      6.00553201	      6.39075527
      0.97000000	      0.20531961	     -2.28024716	     -0.55027293	     -0.07673916	      0.98504759	      0.30842793	    -13.56319022	      6.46686511	     -1.46221711	    -10.03245667	     13.46372742	     -5.37014979	     -3.52943762	     24.13373471	      0.12143257	     -1.59338946	     -9.03029721	     -0.22931232	     -4.30304683	      0.00744666	     -1.88905650	      5.93706969	      6.40255861
      0.97416667	      0.11043296	     -2.24261839	     -0.56440349	     -0.07080953	      0.98454664	      0.30807477	    -13.40279763	      6.37594443	     -1.46377013	    -10.84398595	     13.48966356	     -5.28745549	     -3.44549444	     24.08393992	      0.25579828	     -1.36591572	     -9.14129460	     -0.53825074	     -4.57354163	      0.25363965	     -1.72235165	      5.90580190	      6.41656504
      0.97833333	      0.02944625	     -2.16659819	     -0.55618663	     -0.06482323	      0.98410894	      0.30772214	    -13.25523070	      6.25577445	     -1.44226223	    -11.65572356	     13.43482742	     -5.36206938	     -3.38918997	     24.05162855	      0.42276338	     -1.23672952	     -9.37089814	     -0.87371230	     -4.68669843	      0.39767583	     -1.59237927	      5.80990683	      6.40790816
      0.98250000	     -0.04814572	     -2.11771097	     -0.55220150	     -0.05886325	      0.98371942	      0.30733661	    -13.05407270	      6.15307566	     -1.46290754	    -12.57002649	     13.36724287	     -5.29322732	     -3.20177614	     23.99438126	      0.57454727	     -0.97437163	     -9.59988870	     -1.25531028	     -5.10454858	      0.79901729	     -1.45754941	      5.76679254	      6.40261171
      0.98666667	     -0.14946941	     -2.04703468	     -0.55893288	     -0.05284521	      0.98336215	      0.30697802	    -12.80244432	      6.02966795	     -1.43431082	    -13.53357357	     13.27273878	     -5.33945868	     -3.01067114	     23.95170192	      0.73351379	     -0.76930922	     -9.84980159	     -1.63813494	     -5.34338358	      1.14406154	     -1.28248108	      5.69193354	      6.37669558
      0.99083333	     -0.22366661	     -1.96895055	     -0.55225406	     -0.04679955	      0.98308071	      0.30661237	    -12.55295127	      5.89968797	     -1.42687193	    -14.53988466	     13.09952771	     -5.38645395	     -2.81472051	     23.88414223	      0.90060344	     -0.56944572	    -10.14038632	     -2.04378472	     -5.62194836	      1.44404661	     -1.13688180	      5.59431080	      6.34322313
      0.99500000	     -0.30304506	     -1.88712039	     -0.54276402	     -0.04073826	      0.98283536	      0.30623155	    -12.25955270	      5.76187884	     -1.43423598	    -15.61037474	     12.86860749	     -5.43326586	     -2.60894375	     23.82678750	      1.06941082	     -0.37936956	    -10.46635189	     -2.45454544	     -5.91008400	      1.71114827	     -0.97931208	      5.49243341	      6.30486701
      0.99916667	     -0.34244267	     -1.78089988	     -0.51520337	     -0.03465290	      0.98265247	      0.30579640	    -11.96222955	      5.57894776	     -1.56582715	    -16.75085112	     12.53189959	     -5.30866966	      1.11321839	     23.74498934	      1.26327966	     -0.24418627	    -10.84415361	     -2.90856130	     -6.22598697	      5.68050185	     -0.88148405	      5.36336035	      6.25787772
      1.00333333	     -0.42467775	     -1.69882565	     -0.50567572	     -0.02857738	      0.98250271	      0.30541675	    -11.59843129	      5.44392967	     -1.52290493	    -17.92364760	     12.15620874	     -5.47589141	      1.19108964	     23.68374382	      1.42596962	     -0.05041139	    -11.19400513	     -3.33545146	     -6.56644434	      5.65966866	     -0.72001396	      5.26478239	      6.20046183
      1.00750000	     -0.50045013	     -1.60162916	     -0.48419515	     -0.02250394	      0.98237370	      0.30499150	    -11.18422764	      5.27790732	     -1.57037298	    -19.19335107	     11.75003289	     -5.48089536	      1.32598249	     23.62549349	      1.60809323	      0.13761964	    -11.57710559	     -3.73969255	     -6.92612662	      5.65318735	     -0.56762973	      5.14897057	      6.13097683
      1.01166667	     -0.57115512	     -1.49389779	     -0.46005798	     -0.01642372	      0.98228374	      0.30454754	    -10.73068888	      5.09138476	     -1.64312206	    -20.53256616	     11.26702175	     -5.43737620	      1.50880341	     23.56007374	      1.79849040	      0.31214021	    -11.96777628	     -4.12276351	     -7.27234133	      5.65693072	     -0.41988792	      5.01679807	      6.05194005
      1.01583333	     -0.62977641	     -1.37483746	     -0.42385794	     -0.01036178	      0.98222770	      0.30406603	    -10.24324478	      4.88246187	     -1.75872668	    -21.93982382	     10.73598290	     -5.31552684	      1.81089635	     23.49933516	      2.00407370	      0.47640369	    -12.40223420	     -4.48502565	     -7.68123982	      5.67216911	     -0.29634354	      4.87202789	      5.95990176
      1.02000000	     -0.69064615	     -1.24724920	     -0.39439969	     -0.00430524	      0.98220659	      0.30358936	     -9.70921973	      4.65705084	     -1.86900540	    -23.40974386	     10.10007091	     -5.20779808	      2.17901633	     23.43146842	      2.21087022	      0.61987672	    -12.82513299	     -4.79877067	     -8.01635701	      5.69149634	     -0.16408266	      4.71704563	      5.86350413
      1.02416667	     -0.69571229	     -1.07671590	     -0.36655609	      0.00178549	      0.98229312	      0.30308517	     -9.19796472	      4.36077224	     -2.04211636	    -24.91798520	      9.27451479	     -5.16709939	      9.09296868	     23.28366253	      2.45844423	      0.73274247	    -13.22115781	     -5.04806704	     -8.31426889	      6.00857492	     -0.09186969	      4.51327199	      5.77586178
      1.02833333	     -0.76737483	     -0.93808496	     -0.33595725	      0.00780866	      0.98230853	      0.30260274	     -8.57027589	      4.11230389	     -2.14274016	    -26.49482669	      8.46538572	     -5.08074968	      9.14377244	     23.23877174	      2.66771586	      0.83790487	    -13.67955974	     -5.25306496	     -8.57021116	      5.99817156	      0.05151480	      4.34768339	      5.66499130
      1.03250000	     -0.79934905	     -0.76670674	     -0.30391474	      0.01382500	      0.98239530	      0.30209223	     -7.94275554	      3.81010023	     -2.28494493	    -28.13114511	      7.60257756	     -4.91603018	      9.26112863	     23.13999068	      2.91259321	      0.93908331	    -14.12436255	     -5.39587131	     -8.85200474	      5.98299527	      0.14758312	      4.14535859	      5.54960330
      1.03666667	     -0.80825972	     -0.57206097	     -0.28086912	      0.01984862	      0.98255636	      0.30159745	     -7.30893906	      3.47535395	     -2.41464273	    -29.80168219	      6.63239528	     -4.80684643	      9.37990155	     22.99346118	      3.17304233	      1.01606348	    -14.52961345	     -5.46429796	     -9.03698086	      5.96872882	      0.22797245	      3.91721726	      5.44487079
      1.04083333	     -0.83535925	     -0.36622414	     -0.25057600	      0.02578971	      0.98266559	      0.30105282	     -6.60249161	      3.10983673	     -2.57298701	    -31.54681627	      5.68400032	     -4.50444288	      9.71377319	     22.89038345	      3.45774461	      1.12251916	    -14.98611100	     -5.46188503	     -9.38344601	      5.92284604	      0.30325211	      3.67135850	      5.29494328
      1.04500000	     -0.83688134	     -0.17179876	     -0.20415180	      0.03170637	      0.98283131	      0.30052339	     -5.90945978	      2.76359833	     -2.71163303	    -33.28056089	      4.55586139	     -4.36981725	      9.97870580	     22.76908587	      3.72123796	      1.17377561	    -15.45717711	     -5.43436985	     -9.54405812	      5.88255475	      0.34832623	      3.44168770	      5.18457552
      1.04916667	     -0.83406439	      0.06722144	     -0.18247320	      0.03761218	      0.98301811	      0.29999010	     -5.17910277	      2.35017653	     -2.83613546	    -35.07556420	      3.46187990	     -4.13436094	     10.46819506	     22.60461069	      4.03266989	      1.25468776	    -15.86494379	     -5.27836073	     -9.78175093	      5.79797947	      0.40134204	      3.16397574	      5.02868451
      1.05333333	     -0.79186752	      0.30874818	     -0.14146915	      0.04347997	      0.98327791	      0.29946252	     -4.48290043	      1.93492455	     -2.96434654	    -36.83834778	      2.19224823	     -4.18687425	     15.78385205	     22.40615639	      4.34279002	      1.29559852	    -16.28469538	     -5.11857892	     -9.88279534	      4.71985914	      0.38686694	      2.87257554	      4.92676849
      1.05750000	     -0.78524563	      0.53464443	     -0.10263195	      0.04929742	      0.98349140	      0.29895320	     -3.71878742	      1.54209604	     -3.05630006	    -38.63272534	      0.96244021	     -4.10711597	     15.78945094	     22.25293587	      4.63135736	      1.31575864	    -16.72053324	     -4.88543899	     -9.96210914	      4.73131084	      0.41733575	      2.60831899	      4.80397382
      1.06166667	     -0.75067251	      0.78856622	     -0.06968835	      0.05508598	      0.98376092	      0.29844934	     -2.96498162	      1.11113725	     -3.13925146	    -40.43620724	     -0.25476773	     -4.04984761	     15.79403659	     22.03954963	      4.94750654	      1.33764006	    -17.09411029	     -4.61605833	    -10.03781635	      4.73319868	      0.41722303	      2.31752818	      4.67833464
      1.06583333	     -0.72070595	      1.04037485	     -0.02989707	      0.06080831	      0.98401932	      0.29794539	     -2.18744858	      0.68540041	     -3.20291538	    -42.23551632	     -1.46962299	     -3.98443485	     15.79330366	     21.82963713	      5.26426829	      1.36625259	    -17.46191934	     -4.32398364	    -10.12367734	      4.72590261	      0.40623095	      2.02282071	      4.54142483
      1.07000000	     -0.68804636	      1.29621939	      0.01427618	      0.06648542	      0.98428276	      0.29744573	     -1.39923492	      0.25659075	     -3.25520509	    -44.02529939	     -2.65828034	     -3.95228345	     15.77846177	     21.60874434	      5.58570114	      1.38785191	    -17.81189576	     -4.00476944	    -10.20148630	      4.70952906	      0.38966607	      1.71853258	      4.39874557
      1.07416667	     -0.65456376	      1.55087209	      0.05816033	      0.07211810	      0.98455849	      0.29696713	     -0.60132826	     -0.16504329	     -3.28292876	    -45.79472115	     -3.80426649	     -3.96593197	     15.74135682	     21.37031125	      5.90270546	      1.40410450	    -18.12635036	     -3.66280295	    -10.25347271	      4.68679754	      0.36580993	      1.41253108	      4.25601673
